<?xml version="1.0" encoding="UTF-8"?>
<svg version="1.1" xmlns="http://www.w3.org/2000/svg" width="225" height="225">
<path d="M0 0 C74.25 0 148.5 0 225 0 C225 74.25 225 148.5 225 225 C150.75 225 76.5 225 0 225 C0 150.75 0 76.5 0 0 Z " fill="#D22114" transform="translate(0,0)"/>
<path d="M0 0 C74.25 0 148.5 0 225 0 C225 74.25 225 148.5 225 225 C150.75 225 76.5 225 0 225 C0 150.75 0 76.5 0 0 Z M181.01123047 14.95288086 C179.84483536 15.30509705 179.84483536 15.30509705 178.65487671 15.66442871 C177.81743927 15.92856567 176.98000183 16.19270264 176.1171875 16.46484375 C175.23841949 16.73325073 174.35965149 17.00165771 173.45425415 17.27819824 C170.59146821 18.15508593 167.73330904 19.04613884 164.875 19.9375 C162.90717956 20.54330455 160.9390793 21.14820088 158.97070312 21.75219727 C155.07997889 22.94777811 151.19102706 24.14885324 147.30371094 25.35546875 C142.885373 26.72685989 138.46357971 28.08618114 134.0390625 29.4375 C125.52489159 32.03964847 117.02029815 34.66786405 108.53881836 37.37475586 C100.50248412 39.93893976 92.43302056 42.32662034 84.3137207 44.61425781 C76.21235032 46.90978115 68.16892072 49.37960555 60.13085938 51.88696289 C54.23193597 53.72096793 48.32117581 55.4953633 42.37890625 57.18359375 C41.13512207 57.54018066 39.89133789 57.89676758 38.60986328 58.26416016 C36.1984013 58.95255384 33.7840575 59.63094666 31.36669922 60.29833984 C29.74465576 60.76361084 29.74465576 60.76361084 28.08984375 61.23828125 C27.12941162 61.50680908 26.16897949 61.77533691 25.17944336 62.05200195 C24.46022705 62.36484131 23.74101074 62.67768066 23 63 C21.89408202 66.31775394 22.04201936 66.77713914 23.18902588 69.88778687 C28.41976898 85.16319912 28.83393579 99.37926818 28.734375 115.4140625 C28.74056251 118.08976672 28.7492865 120.76533898 28.76153564 123.44100952 C28.78531297 129.70549104 28.78099654 135.96957582 28.76441312 142.23406827 C28.73556515 153.49566741 28.75609835 164.75724757 28.78681207 176.01882398 C28.79798527 180.59611743 28.78903984 185.1731204 28.77484131 189.75039673 C28.77502973 192.1286825 28.7755214 194.50696828 28.77636719 196.88525391 C28.7691011 197.9729155 28.76183502 199.06057709 28.75434875 200.18119812 C28.75684128 201.1730864 28.7593338 202.16497467 28.76190186 203.18692017 C28.7596397 204.04917521 28.75737755 204.91143024 28.75504684 205.79981422 C28.86182797 208.29023926 28.86182797 208.29023926 31 211 C34.05759091 211.4500701 34.05759091 211.4500701 37.73233032 211.36076355 C38.78232478 211.36460846 38.78232478 211.36460846 39.85353124 211.36853105 C42.21069033 211.37349194 44.56721585 211.35693883 46.92431641 211.34057617 C48.6093189 211.33973039 50.2943225 211.34020408 51.97932434 211.34190369 C56.56386658 211.34276699 61.14817495 211.32508715 65.73266268 211.30418181 C70.51995449 211.28547074 75.30725124 211.28366898 80.09457397 211.28010559 C89.16458849 211.27076871 98.23449497 211.24613276 107.30446184 211.21605712 C117.62835945 211.18256415 127.95226214 211.16603996 138.27620053 211.15097082 C159.5175274 211.11958459 180.75875691 211.06679225 202 211 C203.22863119 208.54273762 203.12312293 206.95176738 203.12025452 204.2038269 C203.12163201 203.19348829 203.12300951 202.18314968 203.12442875 201.14219475 C203.12083064 200.02518747 203.11723253 198.9081802 203.11352539 197.75732422 C203.11364593 196.56762087 203.11376646 195.37791752 203.11389065 194.15216255 C203.11314196 190.28631877 203.10551567 186.4205227 203.09765625 182.5546875 C203.0961867 180.17390974 203.09516607 177.79313166 203.09460449 175.41235352 C203.08935317 166.5665641 203.07539206 157.72078158 203.0625 148.875 C203.041875 129.11625 203.02125 109.3575 203 89 C119.84 88.505 119.84 88.505 35 88 C85.38878509 72.76618125 85.38878509 72.76618125 103.55297852 67.52929688 C116.06957084 63.91266225 128.51243193 60.0763308 140.94921875 56.1953125 C147.25014998 54.22963372 153.55951145 52.29333238 159.875 50.375 C160.78540039 50.09760986 161.69580078 49.82021973 162.63378906 49.53442383 C167.57215285 48.03192094 172.51563517 46.54843611 177.46484375 45.08203125 C178.52654785 44.76508301 179.58825195 44.44813477 180.68212891 44.12158203 C182.72579512 43.51176555 184.77098894 42.90703882 186.81787109 42.30810547 C188.18613037 41.89842529 188.18613037 41.89842529 189.58203125 41.48046875 C190.38874268 41.24223389 191.1954541 41.00399902 192.02661133 40.75854492 C194.19086139 40.0800188 194.19086139 40.0800188 196 38 C194.94412231 34.17934309 193.85081737 30.37042948 192.75 26.5625 C192.29947266 24.92958008 192.29947266 24.92958008 191.83984375 23.26367188 C191.53691406 22.22919922 191.23398438 21.19472656 190.921875 20.12890625 C190.64956055 19.17056885 190.37724609 18.21223145 190.09667969 17.22485352 C189.24233171 14.85687648 189.24233171 14.85687648 187.18075562 14.3013916 C184.75389098 13.96598647 183.34122573 14.233018 181.01123047 14.95288086 Z " fill="#FEFDFD" transform="translate(0,0)"/>
<path d="M0 0 C1.09667969 2.22485352 1.09667969 2.22485352 1.921875 5.12890625 C2.22480469 6.16337891 2.52773437 7.19785156 2.83984375 8.26367188 C3.29037109 9.8965918 3.29037109 9.8965918 3.75 11.5625 C4.06582031 12.65498047 4.38164062 13.74746094 4.70703125 14.87304688 C5.48664208 17.57806022 6.25012961 20.28661991 7 23 C4.33402514 25.16930932 2.14020077 26.46991335 -1.17578125 27.359375 C-1.99167725 27.58423584 -2.80757324 27.80909668 -3.64819336 28.04077148 C-4.52741455 28.27481689 -5.40663574 28.5088623 -6.3125 28.75 C-8.2166332 29.27558123 -10.12026275 29.80298989 -12.0234375 30.33203125 C-13.00924805 30.6048291 -13.99505859 30.87762695 -15.01074219 31.15869141 C-19.84013986 32.51789627 -24.63954289 33.97173066 -29.4375 35.4375 C-30.39140625 35.72834473 -31.3453125 36.01918945 -32.328125 36.31884766 C-39.00766173 38.36569356 -45.66188477 40.48638678 -52.3125 42.625 C-59.54009667 44.94697367 -66.78806676 47.10201611 -74.11376953 49.09082031 C-83.15641258 51.5593522 -92.10301789 54.34338491 -101.06201172 57.09716797 C-118.67550093 62.50972265 -136.33213936 67.76507833 -154 73 C-70.84 73.495 -70.84 73.495 14 74 C14 74.33 14 74.66 14 75 C-43.09 75 -100.18 75 -159 75 C-159 113.94 -159 152.88 -159 193 C-159.33 193 -159.66 193 -160 193 C-159.99962297 192.39575604 -159.99924595 191.79151209 -159.9988575 191.16895771 C-159.99169432 176.36539029 -160.01805159 161.56215562 -160.0802784 146.7587328 C-160.10959098 139.5994141 -160.12816458 132.44038815 -160.12011719 125.28100586 C-160.11311967 119.03009747 -160.12763514 112.7796435 -160.16643608 106.52884597 C-160.18621126 103.22864415 -160.19305369 99.92929609 -160.18042374 96.62903786 C-160.12866565 81.09808319 -161.17513765 67.47303768 -166.57551384 52.81573009 C-167 51 -167 51 -166 48 C-164.25453186 47.14138794 -164.25453186 47.14138794 -161.94946289 46.45361328 C-161.08668228 46.18968781 -160.22390167 45.92576233 -159.3349762 45.65383911 C-158.39041061 45.37877533 -157.44584503 45.10371155 -156.47265625 44.8203125 C-155.49574326 44.52567108 -154.51883026 44.23102966 -153.51231384 43.92745972 C-150.36570642 42.98174155 -147.21425074 42.05341524 -144.0625 41.125 C-142.00292884 40.5075981 -139.94367989 39.88912026 -137.88476562 39.26953125 C-127.89982267 36.27642922 -117.89739203 33.35649125 -107.83473206 30.63479614 C-102.08171248 29.06863646 -96.48379912 27.17822192 -90.84375 25.25 C-86.60646763 23.83757254 -82.31017514 22.6670067 -78 21.5 C-71.13987262 19.64100497 -64.43692733 17.52074752 -57.70703125 15.23046875 C-53.37678662 13.79313781 -49.01503091 12.49862488 -44.62988281 11.23974609 C-40.05018902 9.91715333 -35.49095719 8.53807752 -30.94073486 7.11790466 C-27.9476522 6.18395103 -24.95228633 5.25741959 -21.95697021 4.33065796 C-20.44840887 3.86159328 -18.9409475 3.38897566 -17.43463135 2.91275024 C-15.29642017 2.23726011 -13.15461585 1.57451095 -11.01171875 0.9140625 C-9.75834717 0.5217041 -8.50497559 0.1293457 -7.21362305 -0.27490234 C-2.42471817 -1.35543471 -2.42471817 -1.35543471 0 0 Z " fill="#D32C1F" transform="translate(189,15)"/>
<path d="M0 0 C7.34399493 0.04074338 12.82068972 4.04011138 18.9375 7.75 C19.98357422 8.37132812 21.02964844 8.99265625 22.10742188 9.6328125 C27.78457164 13.01555164 33.41010724 16.47520601 39 20 C38.84399414 22.27539062 38.84399414 22.27539062 38 25 C35.62670898 26.86523438 35.62670898 26.86523438 32.49609375 28.59375 C31.36236328 29.23183594 30.22863281 29.86992187 29.06054688 30.52734375 C27.85318714 31.1854879 26.64550239 31.84303616 25.4375 32.5 C24.25627833 33.15596432 23.07592892 33.81350197 21.89648438 34.47265625 C19.62371273 35.74171656 17.34696314 37.00368414 15.06591797 38.2578125 C12.43026551 39.75550448 9.92491271 41.3426957 7.41015625 43.03125 C4 45 4 45 1.84936523 44.68554688 C0 44 0 44 -1 43 C-1.1011692 39.90918535 -1.13968558 36.84117445 -1.1328125 33.75 C-1.13376923 32.82155273 -1.13472595 31.89310547 -1.13571167 30.93652344 C-1.13639355 28.96940035 -1.13453872 27.00227504 -1.13037109 25.03515625 C-1.12502295 22.01296974 -1.13031582 18.99093185 -1.13671875 15.96875 C-1.13605797 14.06249967 -1.13477681 12.15624943 -1.1328125 10.25 C-1.13483673 9.33959961 -1.13686096 8.42919922 -1.13894653 7.49121094 C-1.11494969 1.11494969 -1.11494969 1.11494969 0 0 Z " fill="#F7F2F2" transform="translate(102,137)"/>
<path d="M0 0 C-0.30893932 1.6256807 -0.6222695 3.25052748 -0.9375 4.875 C-1.19853516 6.23238281 -1.19853516 6.23238281 -1.46484375 7.6171875 C-2 10 -2 10 -3 12 C-5.36328125 13.0703125 -5.36328125 13.0703125 -8.3125 14.125 C-9.27800781 14.47820313 -10.24351562 14.83140625 -11.23828125 15.1953125 C-14 16 -14 16 -18 16 C-17.48016585 11.76135232 -16.74802454 7.9122454 -15 4 C-10.45100355 0.58825266 -5.58364481 -0.20013064 0 0 Z " fill="#F7EFEE" transform="translate(173,27)"/>
<path d="M0 0 C-0.30871122 1.79232337 -0.62209064 3.58384321 -0.9375 5.375 C-1.19853516 6.87160156 -1.19853516 6.87160156 -1.46484375 8.3984375 C-2 11 -2 11 -3 13 C-5.11737732 13.78933522 -7.27054932 14.48417121 -9.4375 15.125 C-10.61183594 15.47820312 -11.78617188 15.83140625 -12.99609375 16.1953125 C-16 17 -16 17 -18 17 C-17.58707106 12.68489259 -16.89595702 8.9193305 -15 5 C-10.47456176 1.87437952 -5.52454899 0 0 0 Z " fill="#F7EEEE" transform="translate(62,60)"/>
<path d="M0 0 C1.45428437 0.0396623 2.90799128 0.11093049 4.359375 0.2109375 C5.10445312 0.23800781 5.84953125 0.26507813 6.6171875 0.29296875 C8.44916493 0.36342942 10.27964651 0.47104757 12.109375 0.5859375 C11.13199731 2.23283385 10.1524218 3.87842604 9.171875 5.5234375 C8.35396484 6.89822266 8.35396484 6.89822266 7.51953125 8.30078125 C6.109375 10.5859375 6.109375 10.5859375 5.109375 11.5859375 C2.57888098 11.65907317 0.07632663 11.67841277 -2.453125 11.6484375 C-3.51950195 11.64166992 -3.51950195 11.64166992 -4.60742188 11.63476562 C-6.36852513 11.62294614 -8.12958536 11.60501013 -9.890625 11.5859375 C-6.12715195 0.92276385 -6.12715195 0.92276385 0 0 Z " fill="#F7F2F1" transform="translate(173.890625,96.4140625)"/>
<path d="M0 0 C-0.67373674 4.13866852 -1.49165261 8.07936653 -3 12 C-6.1875 14.125 -6.1875 14.125 -10 15 C-11.47921214 15.39566339 -12.95837946 15.79149432 -14.4375 16.1875 C-15.613125 16.455625 -16.78875 16.72375 -18 17 C-17.71572583 15.41532272 -17.42225182 13.8322943 -17.125 12.25 C-16.96257812 11.36828125 -16.80015625 10.4865625 -16.6328125 9.578125 C-16.00677751 7.02761209 -15.49642185 5.15939355 -14 3 C-11.7578125 1.953125 -11.7578125 1.953125 -9.125 1.25 C-8.26132813 1.00765625 -7.39765625 0.7653125 -6.5078125 0.515625 C-4 0 -4 0 0 0 Z " fill="#F7EFEE" transform="translate(136,38)"/>
<path d="M0 0 C1.3606152 0.03962957 2.72061697 0.11085657 4.078125 0.2109375 C4.77550781 0.23800781 5.47289062 0.26507813 6.19140625 0.29296875 C7.90498205 0.36338967 9.61695802 0.47100837 11.328125 0.5859375 C9.86404261 4.73417094 8.2296014 8.2521219 5.328125 11.5859375 C2.43218149 12.04805615 0.42315476 12.1706845 -2.421875 11.9609375 C-3.11925781 11.93386719 -3.81664062 11.90679687 -4.53515625 11.87890625 C-6.24873205 11.80848533 -7.96070802 11.70086663 -9.671875 11.5859375 C-5.91590683 0.94402769 -5.91590683 0.94402769 0 0 Z " fill="#F7F1F1" transform="translate(57.671875,96.4140625)"/>
<path d="M0 0 C1.45428437 0.0396623 2.90799128 0.11093049 4.359375 0.2109375 C5.10445312 0.23800781 5.84953125 0.26507813 6.6171875 0.29296875 C8.44916493 0.36342942 10.27964651 0.47104757 12.109375 0.5859375 C11.13199731 2.23283385 10.1524218 3.87842604 9.171875 5.5234375 C8.35396484 6.89822266 8.35396484 6.89822266 7.51953125 8.30078125 C6.109375 10.5859375 6.109375 10.5859375 5.109375 11.5859375 C2.57888098 11.65907317 0.07632663 11.67841277 -2.453125 11.6484375 C-3.51950195 11.64166992 -3.51950195 11.64166992 -4.60742188 11.63476562 C-6.36852513 11.62294614 -8.12958536 11.60501013 -9.890625 11.5859375 C-6.12715195 0.92276385 -6.12715195 0.92276385 0 0 Z " fill="#F7F1F1" transform="translate(134.890625,96.4140625)"/>
<path d="M0 0 C-0.42290037 1.96153791 -0.86381618 3.91919875 -1.3125 5.875 C-1.55613281 6.96554688 -1.79976562 8.05609375 -2.05078125 9.1796875 C-3 12 -3 12 -6 14 C-7.88154883 14.44111565 -9.78062638 14.8109267 -11.6875 15.125 C-12.68136719 15.29257813 -13.67523438 15.46015625 -14.69921875 15.6328125 C-15.45847656 15.75398438 -16.21773438 15.87515625 -17 16 C-16.18453725 6.3775395 -16.18453725 6.3775395 -13 3 C-8.75618143 1.22518211 -4.61184429 0 0 0 Z " fill="#F7EFEF" transform="translate(99,49)"/>
<path d="M0 0 C1.39456452 0.00667256 2.78911118 0.01863093 4.18359375 0.03515625 C4.89451172 0.03966797 5.60542969 0.04417969 6.33789062 0.04882812 C8.09899388 0.06064761 9.86005411 0.07858362 11.62109375 0.09765625 C10.83367516 1.55828768 10.04100325 3.01608798 9.24609375 4.47265625 C8.80523437 5.28476563 8.364375 6.096875 7.91015625 6.93359375 C6.62109375 9.09765625 6.62109375 9.09765625 4.62109375 11.09765625 C2.04045246 11.2426361 -0.42834509 11.2844317 -3.00390625 11.22265625 C-3.7103125 11.21363281 -4.41671875 11.20460938 -5.14453125 11.1953125 C-6.88946723 11.17173228 -8.6342292 11.13586086 -10.37890625 11.09765625 C-9.40152856 9.4507599 -8.42195305 7.80516771 -7.44140625 6.16015625 C-6.89613281 5.24363281 -6.35085937 4.32710938 -5.7890625 3.3828125 C-3.7687654 0.10892386 -3.7687654 0.10892386 0 0 Z " fill="#F7F1F1" transform="translate(96.37890625,96.90234375)"/>
</svg>
